<svg xmlns="http://www.w3.org/2000/svg" xmlns:xlink="http://www.w3.org/1999/xlink" version="1.1" class="marks" width="359" height="342" viewBox="0 0 359 342"><rect width="359" height="342" fill="white"/><g fill="none" stroke-miterlimit="10" transform="translate(49,5)"><g class="mark-group role-frame root" role="graphics-object" aria-roledescription="group mark container"><g transform="translate(0,0)"><path class="background" aria-hidden="true" d="M0.5,0.5h300v300h-300Z" stroke="#ddd"/><g><g class="mark-group role-axis" aria-hidden="true"><g transform="translate(0.5,300.5)"><path class="background" aria-hidden="true" d="M0,0h0v0h0Z" pointer-events="none"/><g><g class="mark-rule role-axis-grid" pointer-events="none"><line transform="translate(0,-300)" x2="0" y2="300" stroke="#ddd" stroke-width="1" opacity="1"/><line transform="translate(38,-300)" x2="0" y2="300" stroke="#ddd" stroke-width="1" opacity="1"/><line transform="translate(75,-300)" x2="0" y2="300" stroke="#ddd" stroke-width="1" opacity="1"/><line transform="translate(113,-300)" x2="0" y2="300" stroke="#ddd" stroke-width="1" opacity="1"/><line transform="translate(150,-300)" x2="0" y2="300" stroke="#ddd" stroke-width="1" opacity="1"/><line transform="translate(188,-300)" x2="0" y2="300" stroke="#ddd" stroke-width="1" opacity="1"/><line transform="translate(225,-300)" x2="0" y2="300" stroke="#ddd" stroke-width="1" opacity="1"/><line transform="translate(263,-300)" x2="0" y2="300" stroke="#ddd" stroke-width="1" opacity="1"/><line transform="translate(300,-300)" x2="0" y2="300" stroke="#ddd" stroke-width="1" opacity="1"/></g></g><path class="foreground" aria-hidden="true" d="" pointer-events="none" display="none"/></g></g><g class="mark-group role-axis" aria-hidden="true"><g transform="translate(0.5,0.5)"><path class="background" aria-hidden="true" d="M0,0h0v0h0Z" pointer-events="none"/><g><g class="mark-rule role-axis-grid" pointer-events="none"><line transform="translate(0,270)" x2="300" y2="0" stroke="#ddd" stroke-width="1" opacity="1"/><line transform="translate(0,220)" x2="300" y2="0" stroke="#ddd" stroke-width="1" opacity="1"/><line transform="translate(0,170)" x2="300" y2="0" stroke="#ddd" stroke-width="1" opacity="1"/><line transform="translate(0,120)" x2="300" y2="0" stroke="#ddd" stroke-width="1" opacity="1"/><line transform="translate(0,70)" x2="300" y2="0" stroke="#ddd" stroke-width="1" opacity="1"/><line transform="translate(0,20)" x2="300" y2="0" stroke="#ddd" stroke-width="1" opacity="1"/></g></g><path class="foreground" aria-hidden="true" d="" pointer-events="none" display="none"/></g></g><g class="mark-group role-axis" role="graphics-symbol" aria-roledescription="axis" aria-label="X-axis titled 'Quantile' for a linear scale with values from 0.1 to 0.9"><g transform="translate(0.5,300.5)"><path class="background" aria-hidden="true" d="M0,0h0v0h0Z" pointer-events="none"/><g><g class="mark-rule role-axis-tick" pointer-events="none"><line transform="translate(0,0)" x2="0" y2="5" stroke="#888" stroke-width="1" opacity="1"/><line transform="translate(38,0)" x2="0" y2="5" stroke="#888" stroke-width="1" opacity="1"/><line transform="translate(75,0)" x2="0" y2="5" stroke="#888" stroke-width="1" opacity="1"/><line transform="translate(113,0)" x2="0" y2="5" stroke="#888" stroke-width="1" opacity="1"/><line transform="translate(150,0)" x2="0" y2="5" stroke="#888" stroke-width="1" opacity="1"/><line transform="translate(188,0)" x2="0" y2="5" stroke="#888" stroke-width="1" opacity="1"/><line transform="translate(225,0)" x2="0" y2="5" stroke="#888" stroke-width="1" opacity="1"/><line transform="translate(263,0)" x2="0" y2="5" stroke="#888" stroke-width="1" opacity="1"/><line transform="translate(300,0)" x2="0" y2="5" stroke="#888" stroke-width="1" opacity="1"/></g><g class="mark-text role-axis-label" pointer-events="none"><text text-anchor="start" transform="translate(0,15)" font-family="sans-serif" font-size="10px" fill="#000" opacity="1">0.1</text><text text-anchor="middle" transform="translate(37.5,15)" font-family="sans-serif" font-size="10px" fill="#000" opacity="1">0.2</text><text text-anchor="middle" transform="translate(74.99999999999999,15)" font-family="sans-serif" font-size="10px" fill="#000" opacity="1">0.3</text><text text-anchor="middle" transform="translate(112.50000000000001,15)" font-family="sans-serif" font-size="10px" fill="#000" opacity="1">0.4</text><text text-anchor="middle" transform="translate(150,15)" font-family="sans-serif" font-size="10px" fill="#000" opacity="1">0.5</text><text text-anchor="middle" transform="translate(187.5,15)" font-family="sans-serif" font-size="10px" fill="#000" opacity="1">0.6</text><text text-anchor="middle" transform="translate(224.99999999999997,15)" font-family="sans-serif" font-size="10px" fill="#000" opacity="1">0.7</text><text text-anchor="middle" transform="translate(262.5,15)" font-family="sans-serif" font-size="10px" fill="#000" opacity="1">0.8</text><text text-anchor="end" transform="translate(300,15)" font-family="sans-serif" font-size="10px" fill="#000" opacity="1">0.9</text></g><g class="mark-rule role-axis-domain" pointer-events="none"><line transform="translate(0,0)" x2="300" y2="0" stroke="#888" stroke-width="1" opacity="1"/></g><g class="mark-text role-axis-title" pointer-events="none"><text text-anchor="middle" transform="translate(150,30)" font-family="sans-serif" font-size="11px" font-weight="bold" fill="#000" opacity="1">Quantile</text></g></g><path class="foreground" aria-hidden="true" d="" pointer-events="none" display="none"/></g></g><g class="mark-group role-axis" role="graphics-symbol" aria-roledescription="axis" aria-label="Y-axis for a linear scale with values from −28,000 to 2,000"><g transform="translate(0.5,0.5)"><path class="background" aria-hidden="true" d="M0,0h0v0h0Z" pointer-events="none"/><g><g class="mark-rule role-axis-tick" pointer-events="none"><line transform="translate(0,270)" x2="-5" y2="0" stroke="#888" stroke-width="1" opacity="1"/><line transform="translate(0,220)" x2="-5" y2="0" stroke="#888" stroke-width="1" opacity="1"/><line transform="translate(0,170)" x2="-5" y2="0" stroke="#888" stroke-width="1" opacity="1"/><line transform="translate(0,120)" x2="-5" y2="0" stroke="#888" stroke-width="1" opacity="1"/><line transform="translate(0,70)" x2="-5" y2="0" stroke="#888" stroke-width="1" opacity="1"/><line transform="translate(0,20)" x2="-5" y2="0" stroke="#888" stroke-width="1" opacity="1"/></g><g class="mark-text role-axis-label" pointer-events="none"><text text-anchor="end" transform="translate(-7,273)" font-family="sans-serif" font-size="10px" fill="#000" opacity="1">−25,000</text><text text-anchor="end" transform="translate(-7,223.00000000000003)" font-family="sans-serif" font-size="10px" fill="#000" opacity="1">−20,000</text><text text-anchor="end" transform="translate(-7,173)" font-family="sans-serif" font-size="10px" fill="#000" opacity="1">−15,000</text><text text-anchor="end" transform="translate(-7,123)" font-family="sans-serif" font-size="10px" fill="#000" opacity="1">−10,000</text><text text-anchor="end" transform="translate(-7,72.99999999999999)" font-family="sans-serif" font-size="10px" fill="#000" opacity="1">−5,000</text><text text-anchor="end" transform="translate(-7,22.999999999999996)" font-family="sans-serif" font-size="10px" fill="#000" opacity="1">0</text></g><g class="mark-rule role-axis-domain" pointer-events="none"><line transform="translate(0,300)" x2="0" y2="-300" stroke="#888" stroke-width="1" opacity="1"/></g></g><path class="foreground" aria-hidden="true" d="" pointer-events="none" display="none"/></g></g><g class="mark-line role-mark layer_0_layer_0_marks" role="graphics-object" aria-roledescription="line mark container"><path aria-label="Quantile: 0.1; effect: 0" role="graphics-symbol" aria-roledescription="line mark" d="M0,20L37.5,86.27L75,105.903L112.5,131.1L150,146.741L187.5,151.741L225,162.778L262.5,196.911L300,222.753" stroke="black" stroke-width="2" stroke-dasharray="1,0"/></g><g class="mark-symbol role-mark layer_0_layer_1_marks" role="graphics-object" aria-roledescription="symbol mark container"><path aria-label="Quantile: 0.1; effect: 0; CI Lower Bound:: −1070.13; Effect Size:: 0.00; CI Upper Bound:: 1070.13; Baseline:: 0.00; Baseline + Effect:: 0.00" role="graphics-symbol" aria-roledescription="point" transform="translate(0,19.999999999999996)" d="M2.739,0A2.739,2.739,0,1,1,-2.739,0A2.739,2.739,0,1,1,2.739,0" fill="black" stroke="black" stroke-width="2" opacity="0.7"/><path aria-label="Quantile: 0.2; effect: −6627.04014489; CI Lower Bound:: −8908.10; Effect Size:: −6627.04; CI Upper Bound:: −4345.98; Baseline:: 7680.65; Baseline + Effect:: 1053.61" role="graphics-symbol" aria-roledescription="point" transform="translate(37.5,86.27040144894109)" d="M2.739,0A2.739,2.739,0,1,1,-2.739,0A2.739,2.739,0,1,1,2.739,0" fill="black" stroke="black" stroke-width="2" opacity="0.7"/><path aria-label="Quantile: 0.3; effect: −8590.28178958; CI Lower Bound:: −11880.37; Effect Size:: −8590.28; CI Upper Bound:: −5300.19; Baseline:: 12376.44; Baseline + Effect:: 3786.16" role="graphics-symbol" aria-roledescription="point" transform="translate(75.00000000000001,105.9028178957938)" d="M2.739,0A2.739,2.739,0,1,1,-2.739,0A2.739,2.739,0,1,1,2.739,0" fill="black" stroke="black" stroke-width="2" opacity="0.7"/><path aria-label="Quantile: 0.4; effect: −11109.9982288; CI Lower Bound:: −15451.01; Effect Size:: −11110.00; CI Upper Bound:: −6768.99; Baseline:: 16250.96; Baseline + Effect:: 5140.96" role="graphics-symbol" aria-roledescription="point" transform="translate(112.50000000000001,131.0999822883847)" d="M2.739,0A2.739,2.739,0,1,1,-2.739,0A2.739,2.739,0,1,1,2.739,0" fill="black" stroke="black" stroke-width="2" opacity="0.7"/><path aria-label="Quantile: 0.5; effect: −12674.0760376; CI Lower Bound:: −17474.31; Effect Size:: −12674.08; CI Upper Bound:: −7873.84; Baseline:: 19949.15; Baseline + Effect:: 7275.07" role="graphics-symbol" aria-roledescription="point" transform="translate(150,146.74076037641885)" d="M2.739,0A2.739,2.739,0,1,1,-2.739,0A2.739,2.739,0,1,1,2.739,0" fill="black" stroke="black" stroke-width="2" opacity="0.7"/><path aria-label="Quantile: 0.6; effect: −13174.102227; CI Lower Bound:: −17577.83; Effect Size:: −13174.10; CI Upper Bound:: −8770.37; Baseline:: 23592.61; Baseline + Effect:: 10418.50" role="graphics-symbol" aria-roledescription="point" transform="translate(187.50000000000003,151.7410222701353)" d="M2.739,0A2.739,2.739,0,1,1,-2.739,0A2.739,2.739,0,1,1,2.739,0" fill="black" stroke="black" stroke-width="2" opacity="0.7"/><path aria-label="Quantile: 0.7; effect: −14277.778418; CI Lower Bound:: −17941.03; Effect Size:: −14277.78; CI Upper Bound:: −10614.53; Baseline:: 26596.61; Baseline + Effect:: 12318.84" role="graphics-symbol" aria-roledescription="point" transform="translate(225.00000000000003,162.77778418010288)" d="M2.739,0A2.739,2.739,0,1,1,-2.739,0A2.739,2.739,0,1,1,2.739,0" fill="black" stroke="black" stroke-width="2" opacity="0.7"/><path aria-label="Quantile: 0.8; effect: −17691.1196084; CI Lower Bound:: −21411.50; Effect Size:: −17691.12; CI Upper Bound:: −13970.74; Baseline:: 31026.96; Baseline + Effect:: 13335.84" role="graphics-symbol" aria-roledescription="point" transform="translate(262.5,196.9111960835784)" d="M2.739,0A2.739,2.739,0,1,1,-2.739,0A2.739,2.739,0,1,1,2.739,0" fill="black" stroke="black" stroke-width="2" opacity="0.7"/><path aria-label="Quantile: 0.9; effect: −20275.3287256; CI Lower Bound:: −26008.47; Effect Size:: −20275.33; CI Upper Bound:: −14542.19; Baseline:: 38132.85; Baseline + Effect:: 17857.52" role="graphics-symbol" aria-roledescription="point" transform="translate(300,222.75328725617425)" d="M2.739,0A2.739,2.739,0,1,1,-2.739,0A2.739,2.739,0,1,1,2.739,0" fill="black" stroke="black" stroke-width="2" opacity="0.7"/></g><g class="mark-rule role-mark layer_0_layer_2_marks" role="graphics-symbol" aria-roledescription="rule mark container"><line transform="translate(300,19.999999999999996)" x2="-300" y2="0" stroke="grey" stroke-dasharray="4,4"/><line transform="translate(300,19.999999999999996)" x2="-300" y2="0" stroke="grey" stroke-dasharray="4,4"/><line transform="translate(300,19.999999999999996)" x2="-300" y2="0" stroke="grey" stroke-dasharray="4,4"/><line transform="translate(300,19.999999999999996)" x2="-300" y2="0" stroke="grey" stroke-dasharray="4,4"/><line transform="translate(300,19.999999999999996)" x2="-300" y2="0" stroke="grey" stroke-dasharray="4,4"/><line transform="translate(300,19.999999999999996)" x2="-300" y2="0" stroke="grey" stroke-dasharray="4,4"/><line transform="translate(300,19.999999999999996)" x2="-300" y2="0" stroke="grey" stroke-dasharray="4,4"/><line transform="translate(300,19.999999999999996)" x2="-300" y2="0" stroke="grey" stroke-dasharray="4,4"/><line transform="translate(300,19.999999999999996)" x2="-300" y2="0" stroke="grey" stroke-dasharray="4,4"/></g><g class="mark-line role-mark layer_1_layer_0_marks" role="graphics-object" aria-roledescription="line mark container"><path aria-label="Quantile: 0.1; ci_lb: −1070.12502126" role="graphics-symbol" aria-roledescription="line mark" d="M0,30.701L37.5,109.081L75,138.804L112.5,174.51L150,194.743L187.5,195.778L225,199.41L262.5,234.115L300,280.085" stroke="black" stroke-width="2" stroke-dasharray="8,8"/></g><g class="mark-symbol role-mark layer_1_layer_1_marks" role="graphics-object" aria-roledescription="symbol mark container"><path aria-label="Quantile: 0.1; ci_lb: −1070.12502126; CI Lower Bound:: −1070.13; Effect Size:: 0.00; CI Upper Bound:: 1070.13; Baseline:: 0.00; Baseline + Effect:: 0.00" role="graphics-symbol" aria-roledescription="point" transform="translate(0,30.701250212633834)" d="M2.739,0A2.739,2.739,0,1,1,-2.739,0A2.739,2.739,0,1,1,2.739,0" fill="black" stroke="black" stroke-width="2" opacity="0.7"/><path aria-label="Quantile: 0.2; ci_lb: −8908.10098408; CI Lower Bound:: −8908.10; Effect Size:: −6627.04; CI Upper Bound:: −4345.98; Baseline:: 7680.65; Baseline + Effect:: 1053.61" role="graphics-symbol" aria-roledescription="point" transform="translate(37.5,109.08100984082743)" d="M2.739,0A2.739,2.739,0,1,1,-2.739,0A2.739,2.739,0,1,1,2.739,0" fill="black" stroke="black" stroke-width="2" opacity="0.7"/><path aria-label="Quantile: 0.3; ci_lb: −11880.3711729; CI Lower Bound:: −11880.37; Effect Size:: −8590.28; CI Upper Bound:: −5300.19; Baseline:: 12376.44; Baseline + Effect:: 3786.16" role="graphics-symbol" aria-roledescription="point" transform="translate(75.00000000000001,138.80371172927173)" d="M2.739,0A2.739,2.739,0,1,1,-2.739,0A2.739,2.739,0,1,1,2.739,0" fill="black" stroke="black" stroke-width="2" opacity="0.7"/><path aria-label="Quantile: 0.4; ci_lb: −15451.0057108; CI Lower Bound:: −15451.01; Effect Size:: −11110.00; CI Upper Bound:: −6768.99; Baseline:: 16250.96; Baseline + Effect:: 5140.96" role="graphics-symbol" aria-roledescription="point" transform="translate(112.50000000000001,174.5100571083175)" d="M2.739,0A2.739,2.739,0,1,1,-2.739,0A2.739,2.739,0,1,1,2.739,0" fill="black" stroke="black" stroke-width="2" opacity="0.7"/><path aria-label="Quantile: 0.5; ci_lb: −17474.3121907; CI Lower Bound:: −17474.31; Effect Size:: −12674.08; CI Upper Bound:: −7873.84; Baseline:: 19949.15; Baseline + Effect:: 7275.07" role="graphics-symbol" aria-roledescription="point" transform="translate(150,194.74312190733525)" d="M2.739,0A2.739,2.739,0,1,1,-2.739,0A2.739,2.739,0,1,1,2.739,0" fill="black" stroke="black" stroke-width="2" opacity="0.7"/><path aria-label="Quantile: 0.6; ci_lb: −17577.8349414; CI Lower Bound:: −17577.83; Effect Size:: −13174.10; CI Upper Bound:: −8770.37; Baseline:: 23592.61; Baseline + Effect:: 10418.50" role="graphics-symbol" aria-roledescription="point" transform="translate(187.50000000000003,195.7783494141372)" d="M2.739,0A2.739,2.739,0,1,1,-2.739,0A2.739,2.739,0,1,1,2.739,0" fill="black" stroke="black" stroke-width="2" opacity="0.7"/><path aria-label="Quantile: 0.7; ci_lb: −17941.0300866; CI Lower Bound:: −17941.03; Effect Size:: −14277.78; CI Upper Bound:: −10614.53; Baseline:: 26596.61; Baseline + Effect:: 12318.84" role="graphics-symbol" aria-roledescription="point" transform="translate(225.00000000000003,199.41030086580662)" d="M2.739,0A2.739,2.739,0,1,1,-2.739,0A2.739,2.739,0,1,1,2.739,0" fill="black" stroke="black" stroke-width="2" opacity="0.7"/><path aria-label="Quantile: 0.8; ci_lb: −21411.5012994; CI Lower Bound:: −21411.50; Effect Size:: −17691.12; CI Upper Bound:: −13970.74; Baseline:: 31026.96; Baseline + Effect:: 13335.84" role="graphics-symbol" aria-roledescription="point" transform="translate(262.5,234.11501299439755)" d="M2.739,0A2.739,2.739,0,1,1,-2.739,0A2.739,2.739,0,1,1,2.739,0" fill="black" stroke="black" stroke-width="2" opacity="0.7"/><path aria-label="Quantile: 0.9; ci_lb: −26008.4658131; CI Lower Bound:: −26008.47; Effect Size:: −20275.33; CI Upper Bound:: −14542.19; Baseline:: 38132.85; Baseline + Effect:: 17857.52" role="graphics-symbol" aria-roledescription="point" transform="translate(300,280.08465813059775)" d="M2.739,0A2.739,2.739,0,1,1,-2.739,0A2.739,2.739,0,1,1,2.739,0" fill="black" stroke="black" stroke-width="2" opacity="0.7"/></g><g class="mark-rule role-mark layer_1_layer_2_marks" role="graphics-symbol" aria-roledescription="rule mark container"><line transform="translate(300,19.999999999999996)" x2="-300" y2="0" stroke="grey" stroke-dasharray="4,4"/><line transform="translate(300,19.999999999999996)" x2="-300" y2="0" stroke="grey" stroke-dasharray="4,4"/><line transform="translate(300,19.999999999999996)" x2="-300" y2="0" stroke="grey" stroke-dasharray="4,4"/><line transform="translate(300,19.999999999999996)" x2="-300" y2="0" stroke="grey" stroke-dasharray="4,4"/><line transform="translate(300,19.999999999999996)" x2="-300" y2="0" stroke="grey" stroke-dasharray="4,4"/><line transform="translate(300,19.999999999999996)" x2="-300" y2="0" stroke="grey" stroke-dasharray="4,4"/><line transform="translate(300,19.999999999999996)" x2="-300" y2="0" stroke="grey" stroke-dasharray="4,4"/><line transform="translate(300,19.999999999999996)" x2="-300" y2="0" stroke="grey" stroke-dasharray="4,4"/><line transform="translate(300,19.999999999999996)" x2="-300" y2="0" stroke="grey" stroke-dasharray="4,4"/></g><g class="mark-line role-mark layer_2_layer_0_marks" role="graphics-object" aria-roledescription="line mark container"><path aria-label="Quantile: 0.1; ci_ub: 1070.12502126" role="graphics-symbol" aria-roledescription="line mark" d="M0,9.299L37.5,63.46L75,73.002L112.5,87.69L150,98.738L187.5,107.704L225,126.145L262.5,159.707L300,165.422" stroke="black" stroke-width="2" stroke-dasharray="8,8"/></g><g class="mark-symbol role-mark layer_2_layer_1_marks" role="graphics-object" aria-roledescription="symbol mark container"><path aria-label="Quantile: 0.1; ci_ub: 1070.12502126; CI Lower Bound:: −1070.13; Effect Size:: 0.00; CI Upper Bound:: 1070.13; Baseline:: 0.00; Baseline + Effect:: 0.00" role="graphics-symbol" aria-roledescription="point" transform="translate(0,9.298749787366189)" d="M2.739,0A2.739,2.739,0,1,1,-2.739,0A2.739,2.739,0,1,1,2.739,0" fill="black" stroke="black" stroke-width="2" opacity="0.7"/><path aria-label="Quantile: 0.2; ci_ub: −4345.97930571; CI Lower Bound:: −8908.10; Effect Size:: −6627.04; CI Upper Bound:: −4345.98; Baseline:: 7680.65; Baseline + Effect:: 1053.61" role="graphics-symbol" aria-roledescription="point" transform="translate(37.5,63.45979305705479)" d="M2.739,0A2.739,2.739,0,1,1,-2.739,0A2.739,2.739,0,1,1,2.739,0" fill="black" stroke="black" stroke-width="2" opacity="0.7"/><path aria-label="Quantile: 0.3; ci_ub: −5300.19240623; CI Lower Bound:: −11880.37; Effect Size:: −8590.28; CI Upper Bound:: −5300.19; Baseline:: 12376.44; Baseline + Effect:: 3786.16" role="graphics-symbol" aria-roledescription="point" transform="translate(75.00000000000001,73.0019240623159)" d="M2.739,0A2.739,2.739,0,1,1,-2.739,0A2.739,2.739,0,1,1,2.739,0" fill="black" stroke="black" stroke-width="2" opacity="0.7"/><path aria-label="Quantile: 0.4; ci_ub: −6768.99074685; CI Lower Bound:: −15451.01; Effect Size:: −11110.00; CI Upper Bound:: −6768.99; Baseline:: 16250.96; Baseline + Effect:: 5140.96" role="graphics-symbol" aria-roledescription="point" transform="translate(112.50000000000001,87.68990746845195)" d="M2.739,0A2.739,2.739,0,1,1,-2.739,0A2.739,2.739,0,1,1,2.739,0" fill="black" stroke="black" stroke-width="2" opacity="0.7"/><path aria-label="Quantile: 0.5; ci_ub: −7873.83988455; CI Lower Bound:: −17474.31; Effect Size:: −12674.08; CI Upper Bound:: −7873.84; Baseline:: 19949.15; Baseline + Effect:: 7275.07" role="graphics-symbol" aria-roledescription="point" transform="translate(150,98.7383988455025)" d="M2.739,0A2.739,2.739,0,1,1,-2.739,0A2.739,2.739,0,1,1,2.739,0" fill="black" stroke="black" stroke-width="2" opacity="0.7"/><path aria-label="Quantile: 0.6; ci_ub: −8770.36951261; CI Lower Bound:: −17577.83; Effect Size:: −13174.10; CI Upper Bound:: −8770.37; Baseline:: 23592.61; Baseline + Effect:: 10418.50" role="graphics-symbol" aria-roledescription="point" transform="translate(187.50000000000003,107.70369512613334)" d="M2.739,0A2.739,2.739,0,1,1,-2.739,0A2.739,2.739,0,1,1,2.739,0" fill="black" stroke="black" stroke-width="2" opacity="0.7"/><path aria-label="Quantile: 0.7; ci_ub: −10614.5267494; CI Lower Bound:: −17941.03; Effect Size:: −14277.78; CI Upper Bound:: −10614.53; Baseline:: 26596.61; Baseline + Effect:: 12318.84" role="graphics-symbol" aria-roledescription="point" transform="translate(225.00000000000003,126.14526749439916)" d="M2.739,0A2.739,2.739,0,1,1,-2.739,0A2.739,2.739,0,1,1,2.739,0" fill="black" stroke="black" stroke-width="2" opacity="0.7"/><path aria-label="Quantile: 0.8; ci_ub: −13970.7379173; CI Lower Bound:: −21411.50; Effect Size:: −17691.12; CI Upper Bound:: −13970.74; Baseline:: 31026.96; Baseline + Effect:: 13335.84" role="graphics-symbol" aria-roledescription="point" transform="translate(262.5,159.70737917275923)" d="M2.739,0A2.739,2.739,0,1,1,-2.739,0A2.739,2.739,0,1,1,2.739,0" fill="black" stroke="black" stroke-width="2" opacity="0.7"/><path aria-label="Quantile: 0.9; ci_ub: −14542.1916382; CI Lower Bound:: −26008.47; Effect Size:: −20275.33; CI Upper Bound:: −14542.19; Baseline:: 38132.85; Baseline + Effect:: 17857.52" role="graphics-symbol" aria-roledescription="point" transform="translate(300,165.42191638175078)" d="M2.739,0A2.739,2.739,0,1,1,-2.739,0A2.739,2.739,0,1,1,2.739,0" fill="black" stroke="black" stroke-width="2" opacity="0.7"/></g><g class="mark-rule role-mark layer_2_layer_2_marks" role="graphics-symbol" aria-roledescription="rule mark container"><line transform="translate(300,19.999999999999996)" x2="-300" y2="0" stroke="grey" stroke-dasharray="4,4"/><line transform="translate(300,19.999999999999996)" x2="-300" y2="0" stroke="grey" stroke-dasharray="4,4"/><line transform="translate(300,19.999999999999996)" x2="-300" y2="0" stroke="grey" stroke-dasharray="4,4"/><line transform="translate(300,19.999999999999996)" x2="-300" y2="0" stroke="grey" stroke-dasharray="4,4"/><line transform="translate(300,19.999999999999996)" x2="-300" y2="0" stroke="grey" stroke-dasharray="4,4"/><line transform="translate(300,19.999999999999996)" x2="-300" y2="0" stroke="grey" stroke-dasharray="4,4"/><line transform="translate(300,19.999999999999996)" x2="-300" y2="0" stroke="grey" stroke-dasharray="4,4"/><line transform="translate(300,19.999999999999996)" x2="-300" y2="0" stroke="grey" stroke-dasharray="4,4"/><line transform="translate(300,19.999999999999996)" x2="-300" y2="0" stroke="grey" stroke-dasharray="4,4"/></g></g><path class="foreground" aria-hidden="true" d="" display="none"/></g></g></g></svg>