<svg xmlns="http://www.w3.org/2000/svg" xmlns:xlink="http://www.w3.org/1999/xlink" version="1.1" class="marks" width="348" height="347" viewBox="0 0 348 347"><rect width="348" height="347" fill="white"/><g fill="none" stroke-miterlimit="10" transform="translate(38,10)"><g class="mark-group role-frame root" role="graphics-object" aria-roledescription="group mark container"><g transform="translate(0,0)"><path class="background" aria-hidden="true" d="M0.5,0.5h300v300h-300Z" stroke="#ddd"/><g><g class="mark-group role-axis" aria-hidden="true"><g transform="translate(0.5,300.5)"><path class="background" aria-hidden="true" d="M0,0h0v0h0Z" pointer-events="none"/><g><g class="mark-rule role-axis-grid" pointer-events="none"><line transform="translate(0,-300)" x2="0" y2="300" stroke="#ddd" stroke-width="1" opacity="1"/><line transform="translate(30,-300)" x2="0" y2="300" stroke="#ddd" stroke-width="1" opacity="1"/><line transform="translate(60,-300)" x2="0" y2="300" stroke="#ddd" stroke-width="1" opacity="1"/><line transform="translate(90,-300)" x2="0" y2="300" stroke="#ddd" stroke-width="1" opacity="1"/><line transform="translate(120,-300)" x2="0" y2="300" stroke="#ddd" stroke-width="1" opacity="1"/><line transform="translate(150,-300)" x2="0" y2="300" stroke="#ddd" stroke-width="1" opacity="1"/><line transform="translate(180,-300)" x2="0" y2="300" stroke="#ddd" stroke-width="1" opacity="1"/><line transform="translate(210,-300)" x2="0" y2="300" stroke="#ddd" stroke-width="1" opacity="1"/><line transform="translate(240,-300)" x2="0" y2="300" stroke="#ddd" stroke-width="1" opacity="1"/><line transform="translate(270,-300)" x2="0" y2="300" stroke="#ddd" stroke-width="1" opacity="1"/><line transform="translate(300,-300)" x2="0" y2="300" stroke="#ddd" stroke-width="1" opacity="1"/></g></g><path class="foreground" aria-hidden="true" d="" pointer-events="none" display="none"/></g></g><g class="mark-group role-axis" aria-hidden="true"><g transform="translate(0.5,0.5)"><path class="background" aria-hidden="true" d="M0,0h0v0h0Z" pointer-events="none"/><g><g class="mark-rule role-axis-grid" pointer-events="none"><line transform="translate(0,300)" x2="300" y2="0" stroke="#ddd" stroke-width="1" opacity="1"/><line transform="translate(0,263)" x2="300" y2="0" stroke="#ddd" stroke-width="1" opacity="1"/><line transform="translate(0,225)" x2="300" y2="0" stroke="#ddd" stroke-width="1" opacity="1"/><line transform="translate(0,188)" x2="300" y2="0" stroke="#ddd" stroke-width="1" opacity="1"/><line transform="translate(0,150)" x2="300" y2="0" stroke="#ddd" stroke-width="1" opacity="1"/><line transform="translate(0,113)" x2="300" y2="0" stroke="#ddd" stroke-width="1" opacity="1"/><line transform="translate(0,75)" x2="300" y2="0" stroke="#ddd" stroke-width="1" opacity="1"/><line transform="translate(0,38)" x2="300" y2="0" stroke="#ddd" stroke-width="1" opacity="1"/><line transform="translate(0,0)" x2="300" y2="0" stroke="#ddd" stroke-width="1" opacity="1"/></g></g><path class="foreground" aria-hidden="true" d="" pointer-events="none" display="none"/></g></g><g class="mark-group role-axis" role="graphics-symbol" aria-roledescription="axis" aria-label="X-axis titled 'Quantile' for a linear scale with values from 0.3 to 0.8"><g transform="translate(0.5,300.5)"><path class="background" aria-hidden="true" d="M0,0h0v0h0Z" pointer-events="none"/><g><g class="mark-rule role-axis-tick" pointer-events="none"><line transform="translate(0,0)" x2="0" y2="5" stroke="#888" stroke-width="1" opacity="1"/><line transform="translate(30,0)" x2="0" y2="5" stroke="#888" stroke-width="1" opacity="1"/><line transform="translate(60,0)" x2="0" y2="5" stroke="#888" stroke-width="1" opacity="1"/><line transform="translate(90,0)" x2="0" y2="5" stroke="#888" stroke-width="1" opacity="1"/><line transform="translate(120,0)" x2="0" y2="5" stroke="#888" stroke-width="1" opacity="1"/><line transform="translate(150,0)" x2="0" y2="5" stroke="#888" stroke-width="1" opacity="1"/><line transform="translate(180,0)" x2="0" y2="5" stroke="#888" stroke-width="1" opacity="1"/><line transform="translate(210,0)" x2="0" y2="5" stroke="#888" stroke-width="1" opacity="1"/><line transform="translate(240,0)" x2="0" y2="5" stroke="#888" stroke-width="1" opacity="1"/><line transform="translate(270,0)" x2="0" y2="5" stroke="#888" stroke-width="1" opacity="1"/><line transform="translate(300,0)" x2="0" y2="5" stroke="#888" stroke-width="1" opacity="1"/></g><g class="mark-text role-axis-label" pointer-events="none"><text text-anchor="start" transform="translate(0,15)" font-family="sans-serif" font-size="10px" fill="#000" opacity="1">0.25</text><text text-anchor="middle" transform="translate(29.999999999999993,15)" font-family="sans-serif" font-size="10px" fill="#000" opacity="1">0.30</text><text text-anchor="middle" transform="translate(59.999999999999986,15)" font-family="sans-serif" font-size="10px" fill="#000" opacity="1">0.35</text><text text-anchor="middle" transform="translate(90.00000000000001,15)" font-family="sans-serif" font-size="10px" fill="#000" opacity="1">0.40</text><text text-anchor="middle" transform="translate(120,15)" font-family="sans-serif" font-size="10px" fill="#000" opacity="1">0.45</text><text text-anchor="middle" transform="translate(150,15)" font-family="sans-serif" font-size="10px" fill="#000" opacity="1">0.50</text><text text-anchor="middle" transform="translate(180.00000000000003,15)" font-family="sans-serif" font-size="10px" fill="#000" opacity="1">0.55</text><text text-anchor="middle" transform="translate(210,15)" font-family="sans-serif" font-size="10px" fill="#000" opacity="1">0.60</text><text text-anchor="middle" transform="translate(240,15)" font-family="sans-serif" font-size="10px" fill="#000" opacity="1">0.65</text><text text-anchor="middle" transform="translate(270,15)" font-family="sans-serif" font-size="10px" fill="#000" opacity="1">0.70</text><text text-anchor="end" transform="translate(300,15)" font-family="sans-serif" font-size="10px" fill="#000" opacity="1">0.75</text></g><g class="mark-rule role-axis-domain" pointer-events="none"><line transform="translate(0,0)" x2="300" y2="0" stroke="#888" stroke-width="1" opacity="1"/></g><g class="mark-text role-axis-title" pointer-events="none"><text text-anchor="middle" transform="translate(150,30)" font-family="sans-serif" font-size="11px" font-weight="bold" fill="#000" opacity="1">Quantile</text></g></g><path class="foreground" aria-hidden="true" d="" pointer-events="none" display="none"/></g></g><g class="mark-group role-axis" role="graphics-symbol" aria-roledescription="axis" aria-label="Y-axis for a linear scale with values from −0.3 to 0.1"><g transform="translate(0.5,0.5)"><path class="background" aria-hidden="true" d="M0,0h0v0h0Z" pointer-events="none"/><g><g class="mark-rule role-axis-tick" pointer-events="none"><line transform="translate(0,300)" x2="-5" y2="0" stroke="#888" stroke-width="1" opacity="1"/><line transform="translate(0,263)" x2="-5" y2="0" stroke="#888" stroke-width="1" opacity="1"/><line transform="translate(0,225)" x2="-5" y2="0" stroke="#888" stroke-width="1" opacity="1"/><line transform="translate(0,188)" x2="-5" y2="0" stroke="#888" stroke-width="1" opacity="1"/><line transform="translate(0,150)" x2="-5" y2="0" stroke="#888" stroke-width="1" opacity="1"/><line transform="translate(0,113)" x2="-5" y2="0" stroke="#888" stroke-width="1" opacity="1"/><line transform="translate(0,75)" x2="-5" y2="0" stroke="#888" stroke-width="1" opacity="1"/><line transform="translate(0,38)" x2="-5" y2="0" stroke="#888" stroke-width="1" opacity="1"/><line transform="translate(0,0)" x2="-5" y2="0" stroke="#888" stroke-width="1" opacity="1"/></g><g class="mark-text role-axis-label" pointer-events="none"><text text-anchor="end" transform="translate(-7,303)" font-family="sans-serif" font-size="10px" fill="#000" opacity="1">−0.25</text><text text-anchor="end" transform="translate(-7,265.5)" font-family="sans-serif" font-size="10px" fill="#000" opacity="1">−0.20</text><text text-anchor="end" transform="translate(-7,228)" font-family="sans-serif" font-size="10px" fill="#000" opacity="1">−0.15</text><text text-anchor="end" transform="translate(-7,190.5)" font-family="sans-serif" font-size="10px" fill="#000" opacity="1">−0.10</text><text text-anchor="end" transform="translate(-7,153)" font-family="sans-serif" font-size="10px" fill="#000" opacity="1">−0.05</text><text text-anchor="end" transform="translate(-7,115.5)" font-family="sans-serif" font-size="10px" fill="#000" opacity="1">0.00</text><text text-anchor="end" transform="translate(-7,78.00000000000003)" font-family="sans-serif" font-size="10px" fill="#000" opacity="1">0.05</text><text text-anchor="end" transform="translate(-7,40.500000000000036)" font-family="sans-serif" font-size="10px" fill="#000" opacity="1">0.10</text><text text-anchor="end" transform="translate(-7,3)" font-family="sans-serif" font-size="10px" fill="#000" opacity="1">0.15</text></g><g class="mark-rule role-axis-domain" pointer-events="none"><line transform="translate(0,300)" x2="0" y2="-300" stroke="#888" stroke-width="1" opacity="1"/></g></g><path class="foreground" aria-hidden="true" d="" pointer-events="none" display="none"/></g></g><g class="mark-line role-mark layer_0_layer_0_marks" role="graphics-object" aria-roledescription="line mark container"><path aria-label="Quantile: 0.25; effect: −0.101687570142" role="graphics-symbol" aria-roledescription="line mark" d="M0,188.766L150,112.5L300,147.7" stroke="black" stroke-width="2" stroke-dasharray="1,0"/></g><g class="mark-symbol role-mark layer_0_layer_1_marks" role="graphics-object" aria-roledescription="symbol mark container"><path aria-label="Quantile: 0.25; effect: −0.101687570142" role="graphics-symbol" aria-roledescription="point" transform="translate(0,188.76567760677005)" d="M2.739,0A2.739,2.739,0,1,1,-2.739,0A2.739,2.739,0,1,1,2.739,0" fill="black" stroke="black" stroke-width="2" opacity="0.7"/><path aria-label="Quantile: 0.5; effect: 0" role="graphics-symbol" aria-roledescription="point" transform="translate(150,112.5)" d="M2.739,0A2.739,2.739,0,1,1,-2.739,0A2.739,2.739,0,1,1,2.739,0" fill="black" stroke="black" stroke-width="2" opacity="0.7"/><path aria-label="Quantile: 0.75; effect: −0.0469327246811" role="graphics-symbol" aria-roledescription="point" transform="translate(300,147.69954351081768)" d="M2.739,0A2.739,2.739,0,1,1,-2.739,0A2.739,2.739,0,1,1,2.739,0" fill="black" stroke="black" stroke-width="2" opacity="0.7"/></g><g class="mark-line role-mark layer_0_layer_2_marks" role="graphics-object" aria-roledescription="line mark container"><path aria-label="Quantile: 0.25; ci_ub: 0.0121001547448" role="graphics-symbol" aria-roledescription="line mark" d="M0,103.425L150,31.601L300,56.07" stroke="black" stroke-width="2" stroke-dasharray="8,8"/></g><g class="mark-symbol role-mark layer_0_layer_3_marks" role="graphics-object" aria-roledescription="symbol mark container"><path aria-label="Quantile: 0.25; ci_ub: 0.0121001547448" role="graphics-symbol" aria-roledescription="point" transform="translate(0,103.42488394139171)" d="M2.739,0A2.739,2.739,0,1,1,-2.739,0A2.739,2.739,0,1,1,2.739,0" fill="black" stroke="black" stroke-width="2" opacity="0.7"/><path aria-label="Quantile: 0.5; ci_ub: 0.107864851467" role="graphics-symbol" aria-roledescription="point" transform="translate(150,31.601361399690532)" d="M2.739,0A2.739,2.739,0,1,1,-2.739,0A2.739,2.739,0,1,1,2.739,0" fill="black" stroke="black" stroke-width="2" opacity="0.7"/><path aria-label="Quantile: 0.75; ci_ub: 0.0752397808213" role="graphics-symbol" aria-roledescription="point" transform="translate(300,56.07016438405555)" d="M2.739,0A2.739,2.739,0,1,1,-2.739,0A2.739,2.739,0,1,1,2.739,0" fill="black" stroke="black" stroke-width="2" opacity="0.7"/></g><g class="mark-line role-mark layer_0_layer_4_marks" role="graphics-object" aria-roledescription="line mark container"><path aria-label="Quantile: 0.25; ci_lb: −0.21547529503" role="graphics-symbol" aria-roledescription="line mark" d="M0,274.106L150,193.399L300,239.329" stroke="black" stroke-width="2" stroke-dasharray="8,8"/></g><g class="mark-symbol role-mark layer_0_layer_5_marks" role="graphics-object" aria-roledescription="symbol mark container"><path aria-label="Quantile: 0.25; ci_lb: −0.21547529503" role="graphics-symbol" aria-roledescription="point" transform="translate(0,274.10647127214844)" d="M2.739,0A2.739,2.739,0,1,1,-2.739,0A2.739,2.739,0,1,1,2.739,0" fill="black" stroke="black" stroke-width="2" opacity="0.7"/><path aria-label="Quantile: 0.5; ci_lb: −0.107864851467" role="graphics-symbol" aria-roledescription="point" transform="translate(150,193.3986386003095)" d="M2.739,0A2.739,2.739,0,1,1,-2.739,0A2.739,2.739,0,1,1,2.739,0" fill="black" stroke="black" stroke-width="2" opacity="0.7"/><path aria-label="Quantile: 0.75; ci_lb: −0.169105230183" role="graphics-symbol" aria-roledescription="point" transform="translate(300,239.32892263757978)" d="M2.739,0A2.739,2.739,0,1,1,-2.739,0A2.739,2.739,0,1,1,2.739,0" fill="black" stroke="black" stroke-width="2" opacity="0.7"/></g><g class="mark-rule role-mark layer_1_layer_0_marks" role="graphics-object" aria-roledescription="rule mark container"><line aria-label="effect: −0.0192460291087" role="graphics-symbol" aria-roledescription="rule mark" transform="translate(300,126.93452183153715)" x2="-300" y2="0" stroke="red" stroke-dasharray="1,0"/></g><g class="mark-rule role-mark layer_1_layer_1_marks" role="graphics-object" aria-roledescription="rule mark container"><line aria-label="ci_lb: −0.0511799830771" role="graphics-symbol" aria-roledescription="rule mark" transform="translate(300,150.88498730784514)" x2="-300" y2="0" stroke="red" stroke-dasharray="8,8"/></g><g class="mark-rule role-mark layer_1_layer_2_marks" role="graphics-object" aria-roledescription="rule mark container"><line aria-label="ci_ub: 0.0126879248597" role="graphics-symbol" aria-roledescription="rule mark" transform="translate(300,102.98405635522923)" x2="-300" y2="0" stroke="red" stroke-dasharray="8,8"/></g></g><path class="foreground" aria-hidden="true" d="" display="none"/></g></g></g></svg>
